<?xml version="1.0" encoding="utf-8"?>
<!-- Generator: Adobe Illustrator 23.0.4, SVG Export Plug-In . SVG Version: 6.00 Build 0)  -->
<svg version="1.1" id="Capa_1" xmlns="http://www.w3.org/2000/svg" xmlns:xlink="http://www.w3.org/1999/xlink" x="0px" y="0px"
	 viewBox="0 0 2436 1125" style="enable-background:new 0 0 2436 1125;" xml:space="preserve">
<style type="text/css">
	.st0{fill:#FFFFFF;stroke:#000000;stroke-width:7.6826;stroke-miterlimit:10;}
	.st1{fill:#FFFFFF;stroke:#000000;stroke-width:10.302;stroke-miterlimit:10;}
	.st2{fill:none;stroke:#000000;stroke-width:6.4444;stroke-miterlimit:10;}
	.st3{fill:#1A1D37;}
	.st4{fill:none;stroke:#000000;stroke-width:3.434;stroke-miterlimit:10;}
	.st5{fill:#FFFFFF;stroke:#000000;stroke-width:15.3651;stroke-miterlimit:10;}
</style>
<g>
	<g>
		<path class="st0" d="M1014.7,677.39c0,0-53.12,35.44-24.1,90.22c29.02,54.78,98.32,54.59,140.2,59.52
			c41.88,4.93,64.4,33.94,27.36,74.21c-37.04,40.27-198.01,59.45-307.63,4.75c-109.62-54.7-233.16-10.32-267.25,12.6
			c-34.09,22.92-258.11,122.72-362.79,64.76C115.79,925.5,54,835.36,48.65,627.49c-5.36-207.87,46.07-335.11,146.02-367.35
			s241.67-25.72,356.09,43.52c114.42,69.24,204.71,37.25,286.84,8.14c82.13-29.12,167.55-36.42,190.09,22.81
			c0,0,21.47,61.1-63.38,60.98c-84.86-0.13-117.14,95.27-68.77,153.1L1014.7,677.39z"/>
		<g>
			<path class="st0" d="M196.93,329.87c-12.46,8.72-1.22,54.53,31.15,94.1c32.37,39.56,69.77,71.35,90.21,51.13
				c21.71-21.48-2.93-56.49-35.3-96.05C250.62,339.48,209.24,321.26,196.93,329.87z"/>
			<g>
				<path class="st1" d="M398.81,541.48c0,0,13.11-78.6-55.74-150.45s-47.46-91.16-28.08-99.76c19.38-8.6,86.81-5.63,233,65.39
					c146.19,71.01,210.51,3.37,279.81-16.86c79.86-23.32,137.1-21.35,139.22,3.73c2.12,25.07-53.73,13.04-96.69,55.04
					c-42.96,42-45.06,120.58-2.12,175.27c42.94,54.69,103.86,159.07,58.9,169.71c-44.96,10.64-136.56-21.26-218.98,5.27
					c-82.42,26.53-189.93,104.15-275.93,34.35c0,0-39.86-27.94-34.47-108.48C403.11,594.15,398.81,541.48,398.81,541.48z"/>
				<g>
					<g>
						<circle class="st1" cx="481.65" cy="487.88" r="20.13"/>
					</g>
					<g>
						<circle class="st1" cx="425.83" cy="405.33" r="20.13"/>
					</g>
					<g>
						<path class="st1" d="M361.54,318.18c11.11,0,20.12,9.01,20.12,20.13c0,11.12-9.01,20.13-20.12,20.13
							c-11.12,0-20.13-9.01-20.13-20.13C341.42,327.19,350.43,318.18,361.54,318.18z"/>
					</g>
				</g>
			</g>
		</g>
	</g>
	<g>
		<g>
			<g>
				<polygon class="st0" points="2322.2,586.5 2326.76,605.39 2339.33,602.24 2334.77,583.35 				"/>
				<path class="st0" d="M2336.73,595.2c10.16-0.21,18.56,8.01,18.78,18.37c0.21,10.35-7.85,18.92-18.01,19.13
					c-10.16,0.21-18.56-8.02-18.78-18.37S2326.57,595.41,2336.73,595.2z"/>
			</g>
			<g>
				<polygon class="st0" points="2271.52,606.88 2276.08,625.77 2288.65,622.62 2284.09,603.73 				"/>
				<path class="st0" d="M2286.05,615.58c10.16-0.21,18.56,8.02,18.78,18.37c0.21,10.35-7.85,18.92-18.01,19.13
					c-10.16,0.21-18.56-8.01-18.78-18.37C2267.83,624.35,2275.9,615.79,2286.05,615.58z"/>
			</g>
			<g>
				<polygon class="st0" points="2222.94,627.6 2227.5,646.48 2240.07,643.34 2235.51,624.45 				"/>
				<path class="st0" d="M2237.47,636.29c10.16-0.21,18.56,8.02,18.78,18.37c0.21,10.35-7.85,18.92-18.01,19.13
					c-10.16,0.21-18.56-8.01-18.78-18.37C2219.25,645.06,2227.31,636.5,2237.47,636.29z"/>
			</g>
			<g>
				<polygon class="st0" points="2172.44,647.96 2177,666.84 2189.57,663.7 2185.01,644.81 				"/>
				<path class="st0" d="M2186.97,656.65c10.16-0.21,18.56,8.01,18.78,18.37c0.21,10.35-7.85,18.92-18.01,19.13
					c-10.16,0.21-18.56-8.01-18.78-18.37C2168.75,665.42,2176.81,656.86,2186.97,656.65z"/>
			</g>
			<g>
				<polygon class="st0" points="2121.43,667.54 2125.99,686.43 2138.56,683.28 2134,664.39 				"/>
				<path class="st0" d="M2135.96,676.23c10.16-0.21,18.56,8.01,18.78,18.37c0.21,10.35-7.85,18.92-18.01,19.13
					c-10.16,0.21-18.56-8.02-18.78-18.37C2117.74,685.01,2125.8,676.44,2135.96,676.23z"/>
			</g>
			<g>
				<polygon class="st0" points="2070.69,686.17 2075.25,705.06 2087.82,701.92 2083.26,683.03 				"/>
				<path class="st0" d="M2085.22,694.87c10.16-0.21,18.56,8.01,18.78,18.37c0.21,10.35-7.85,18.92-18.01,19.13
					c-10.16,0.21-18.56-8.02-18.78-18.37C2067,703.64,2075.07,695.08,2085.22,694.87z"/>
			</g>
		</g>
		<g>
			<g>
				<polygon class="st0" points="1953.77,660.05 1953.66,569.67 847.17,551.43 847.34,681.23 				"/>
				<path class="st0" d="M1953.66,570c0,0,88.74,8.86,100.78-79.3c0,0,60.63-17.8,130.67,15.05s78.24,4.07,86.19-12.35
					c7.94-16.42,43.21-52.64,91.65-21.48c0,0,36.86,24.63,19.34,68.99c0,0-4.36,21.98-33.5,33.61l-315.62,123.2
					c0,0-45.01-42.21-79.39-37.62L1953.66,570z"/>
			</g>
			<g>
				<g>
					<line class="st2" x1="871.92" y1="680.96" x2="871.76" y2="551.9"/>
					<line class="st2" x1="897.94" y1="680.92" x2="897.77" y2="551.86"/>
					<line class="st2" x1="926.19" y1="680.89" x2="926.02" y2="551.83"/>
					<line class="st2" x1="959.16" y1="680.84" x2="959" y2="551.78"/>
					<line class="st2" x1="990.6" y1="680.8" x2="990.44" y2="551.74"/>
					<line class="st2" x1="1023.56" y1="680.76" x2="1023.4" y2="551.7"/>
					<line class="st2" x1="1064.82" y1="677.87" x2="1064.67" y2="552.35"/>
					<line class="st2" x1="1100.91" y1="677.52" x2="1100.76" y2="553.47"/>
					<line class="st2" x1="1142.62" y1="680.6" x2="1142.46" y2="554.09"/>
					<line class="st2" x1="1186.47" y1="675.63" x2="1186.32" y2="557.44"/>
					<line class="st2" x1="1233.36" y1="675.57" x2="1233.21" y2="553.47"/>
					<line class="st2" x1="1281.15" y1="674.91" x2="1281" y2="556.01"/>
					<line class="st2" x1="1331.07" y1="673.43" x2="1330.93" y2="557.44"/>
					<line class="st2" x1="1386.91" y1="672.93" x2="1386.77" y2="560.95"/>
					<line class="st2" x1="1443.34" y1="671.98" x2="1443.2" y2="555.97"/>
					<line class="st2" x1="1503.01" y1="672.78" x2="1502.87" y2="562.97"/>
					<line class="st2" x1="1564.89" y1="669.13" x2="1564.76" y2="563.95"/>
					<line class="st2" x1="1633.54" y1="669.04" x2="1633.41" y2="560.59"/>
					<line class="st2" x1="1701.49" y1="668.19" x2="1701.37" y2="560.95"/>
					<line class="st2" x1="1777.6" y1="666.57" x2="1777.47" y2="560.16"/>
					<line class="st2" x1="1855.72" y1="664.4" x2="1855.6" y2="567.32"/>
				</g>
				<g>
					<path d="M884.44,611.12c3.86-0.01,7,3.18,7,7.12c0.01,3.94-3.12,7.13-6.98,7.14c-3.86,0-7-3.18-7-7.12
						C877.45,614.32,880.58,611.13,884.44,611.12z"/>
					<path d="M941.69,611.05c3.86-0.01,7,3.18,7,7.12c0.01,3.94-3.12,7.13-6.98,7.14c-3.86,0-7-3.18-7-7.12
						C934.71,614.25,937.83,611.05,941.69,611.05z"/>
					<path d="M1006.95,610.96c3.86-0.01,7,3.18,7,7.12c0,3.94-3.12,7.13-6.98,7.14c-3.86,0-7-3.18-7-7.12
						C999.97,614.16,1003.09,610.97,1006.95,610.96z"/>
					<path d="M1082.49,610.86c3.86-0.01,7,3.18,7,7.12c0.01,3.94-3.12,7.13-6.98,7.14c-3.86,0.01-7-3.18-7-7.12
						C1075.5,614.06,1078.63,610.87,1082.49,610.86z"/>
					<path d="M1358.93,610.49c3.86-0.01,7,3.18,7,7.12c0.01,3.94-3.12,7.13-6.98,7.14c-3.86,0.01-7-3.18-7-7.12
						C1351.94,613.7,1355.07,610.5,1358.93,610.49z"/>
					<path d="M1473.21,610.34c3.86-0.01,7,3.18,7,7.12s-3.12,7.13-6.98,7.14c-3.86,0.01-7-3.18-7-7.12
						S1469.35,610.35,1473.21,610.34z"/>
					<path d="M1599.65,610.18c3.86-0.01,7,3.18,7,7.12c0.01,3.94-3.12,7.13-6.98,7.14c-3.86,0-7-3.18-7-7.12
						C1592.66,613.38,1595.79,610.18,1599.65,610.18z"/>
					<path d="M1739.01,609.99c3.86-0.01,7,3.18,7,7.12c0.01,3.94-3.12,7.13-6.98,7.14c-3.86,0.01-7-3.18-7-7.12
						C1732.02,613.19,1735.15,610,1739.01,609.99z"/>
					<g>
						<path d="M1208.29,646.81c3.86,0,7,3.18,7,7.12c0,3.94-3.12,7.13-6.98,7.14s-7-3.18-7-7.12
							C1201.3,650.01,1204.42,646.82,1208.29,646.81z"/>
						<path d="M1208.19,571.59c3.86-0.01,7,3.18,7,7.12c0.01,3.94-3.12,7.13-6.98,7.14c-3.86,0.01-7-3.18-7-7.12
							S1204.33,571.59,1208.19,571.59z"/>
					</g>
				</g>
			</g>
		</g>
	</g>
	<g>
		<path class="st3" d="M763.82,562.5v107.66c0,12.16,9.95,22.12,22.12,22.12l0,0c12.16,0,22.12-9.95,22.12-22.12V562.5
			c0-12.16-9.95-22.12-22.12-22.12l0,0C773.77,540.38,763.82,550.33,763.82,562.5z"/>
		<path class="st3" d="M615.58,562.5v107.66c0,12.16,9.95,22.12,22.12,22.12l0,0c12.17,0,22.12-9.95,22.12-22.12V562.5
			c0-12.16-9.95-22.12-22.12-22.12l0,0C625.54,540.38,615.58,550.33,615.58,562.5z"/>
		<path class="st3" d="M480.24,562.5v107.66c0,12.16,9.95,22.12,22.12,22.12l0,0c12.16,0,22.12-9.95,22.12-22.12V562.5
			c0-12.16-9.95-22.12-22.12-22.12l0,0C490.19,540.38,480.24,550.33,480.24,562.5z"/>
	</g>
	<path class="st0" d="M321.51,530.04v173.72c0,0.6,0.49,1.09,1.09,1.09h109.48c0.6,0,1.09-0.49,1.09-1.09V530.04
		c0-0.6-0.49-1.09-1.09-1.09H322.6C322,528.95,321.51,529.44,321.51,530.04z"/>
	<g>
		<path d="M2318.64,544.86c7.39-0.01,13.38,5.97,13.39,13.36c0.01,7.39-5.97,13.38-13.36,13.39c-7.39,0.01-13.38-5.97-13.39-13.36
			C2305.27,550.87,2311.25,544.87,2318.64,544.86z"/>
		<path d="M2211.89,584.55c7.39-0.01,13.38,5.97,13.39,13.36c0.01,7.39-5.97,13.38-13.36,13.39c-7.39,0.01-13.38-5.97-13.39-13.36
			C2198.53,590.55,2204.51,584.56,2211.89,584.55z"/>
		<path d="M2158.78,604.06c7.39-0.01,13.38,5.97,13.39,13.36c0.01,7.39-5.97,13.38-13.36,13.39c-7.39,0.01-13.38-5.97-13.39-13.36
			C2145.42,610.06,2151.4,604.07,2158.78,604.06z"/>
		<path d="M2103.94,623.98c7.39-0.01,13.38,5.97,13.39,13.36c0.01,7.39-5.97,13.38-13.36,13.39c-7.39,0.01-13.38-5.97-13.39-13.36
			C2090.57,629.99,2096.55,623.99,2103.94,623.98z"/>
		<path d="M2051.49,644.49c7.39-0.01,13.38,5.97,13.39,13.36s-5.97,13.38-13.36,13.39c-7.39,0.01-13.38-5.97-13.39-13.36
			C2038.13,650.49,2044.11,644.5,2051.49,644.49z"/>
		<path d="M2264.98,565.93c7.39-0.01,13.38,5.97,13.39,13.36s-5.97,13.38-13.36,13.39c-7.39,0.01-13.38-5.97-13.39-13.36
			C2251.61,571.93,2257.59,565.94,2264.98,565.93z"/>
	</g>
	<g>
		<g>
			<circle cx="417.39" cy="677.58" r="6.53"/>
			<path d="M417.39,646.58c3.61,0,6.53,2.92,6.53,6.53c0,3.61-2.92,6.53-6.53,6.53c-3.61,0-6.53-2.92-6.53-6.53
				C410.86,649.51,413.79,646.58,417.39,646.58z"/>
			<circle cx="417.39" cy="628.65" r="6.53"/>
			<path d="M417.39,597.65c3.61,0,6.53,2.92,6.53,6.53c0,3.61-2.92,6.53-6.53,6.53c-3.61,0-6.53-2.92-6.53-6.53
				C410.86,600.57,413.79,597.65,417.39,597.65z"/>
			<circle cx="417.39" cy="579.71" r="6.53"/>
			<path d="M417.39,548.72c3.61,0,6.53,2.92,6.53,6.53c0,3.61-2.92,6.53-6.53,6.53c-3.61,0-6.53-2.92-6.53-6.53
				C410.86,551.64,413.79,548.72,417.39,548.72z"/>
		</g>
		<g>
			<line class="st4" x1="2046.51" y1="650" x2="417.39" y2="677.58"/>
			<line class="st4" x1="2096.43" y1="635.51" x2="417.39" y2="653.11"/>
			<polyline class="st4" points="2150.59,614.6 1953.11,621.01 420.95,629.24 			"/>
			<polyline class="st4" points="2205.58,595.26 1953.77,606.13 420.39,603.79 			"/>
			<polyline class="st4" points="2257.12,577.41 1953.54,591.21 423.92,579.71 			"/>
			<polyline class="st4" points="2311.66,555.64 1954.73,577.41 419.72,558.17 			"/>
		</g>
	</g>
</g>
<g>
	<path d="M657.34,118.66l9.33,159.8l78.69-159.8h72.2L601.37,536.02h-71.39l81.12-159.41l-23.12-257.96H657.34z"/>
	<path d="M887.31,241.15c19.06,0,28.8,16.22,23.93,33.66l-67.74,229.97c-7.3,24.34-27.18,31.23-47.46,31.23h-72.6
		c-20.69,0-36.5-15.01-29.2-40.15l66.52-225.92c4.46-17.04,18.25-28.79,38.13-28.79H887.31z M814.31,295.9l-54.35,183.74
		c-1.22,4.46,0.81,7.3,5.68,7.3h15.82c4.87,0,8.52-2.84,9.73-7.3l53.94-183.33c1.22-4.46-0.41-7.71-6.08-7.71h-15.41
		C817.55,288.6,815.52,291.85,814.31,295.9z"/>
	<path d="M1002.1,241.15l-68.55,233.22c-2.84,8.93,1.22,12.17,10.14,12.17h15.82l72.2-245.38h60.84l-83.56,283.51l-70.58,34.48
		l6.89-23.12h-35.29c-30.01,0-51.1-15.82-39.34-54.75l70.58-240.12h61.25H1002.1z"/>
	<path d="M1087.26,536.02h-61.25l86.8-294.87h111.54c26.36,0,34.88,17.84,29.2,37.31l-29.61,100.19
		c-2.43,8.52-10.95,17.44-25.96,17.44c9.33,1.63,18.25,11.36,11.76,32.45l-31.64,107.49h-61.25l34.07-115.6
		c1.62-4.87,0.81-10.14-6.49-10.14h-20.28L1087.26,536.02z M1157.84,366.89c6.08,0,11.35-2.43,14.19-11.36l16.22-54.75
		c2.43-7.71,0-12.17-9.33-12.17h-19.06l-23.12,78.28H1157.84z"/>
	<path d="M1266.53,536.02h-68.14l102.62-348.82h68.14L1266.53,536.02z M1501.78,191.66c2.84-10.14-1.62-14.19-11.36-14.19H1271.4
		l37.31-58.81h232.82c30.82,0,43.8,20.68,35.69,48.26l-108.7,369.1h-68.14L1501.78,191.66z M1367.53,536.02h-68.14l102.62-348.82
		h68.14L1367.53,536.02z"/>
	<path d="M1636.84,241.15l-68.55,233.22c-2.84,8.93,1.22,12.17,10.14,12.17h15.82l72.2-245.38h60.84l-83.56,283.51l-70.58,34.48
		l6.89-23.12h-35.29c-30.01,0-51.1-15.82-39.34-54.75L1576,241.15h61.25H1636.84z"/>
	<path d="M1800.69,294.28c-4.46,0-8.92,2.03-10.95,8.52l-17.44,60.03h32.86c21.9,0,35.69,12.17,27.17,40.97l-33.66,114.38
		c-3.24,11.76-16.63,17.85-29.2,17.85h-100.18l16.63-55.98h51.11c11.35,0,12.98-2.84,15.41-10.14l14.2-49.89
		c0.81-2.43,0.81-4.05-2.84-4.05h-32.45c-25.55,0-31.64-14.2-25.55-35.7l33.66-114.38c6.89-20.68,21.5-24.74,36.1-24.74h94.51
		l-15.82,53.13H1800.69z"/>
	<path d="M1875.73,536.02h-62.87l86.8-294.87h62.87L1875.73,536.02z"/>
	<path d="M2100.42,330.78l-59.22,13.79l16.22-55.97h-19.87c-6.49,0-9.33,1.62-11.36,8.92l-49.89,169.54
		c-2.84,9.33,0.41,12.98,8.92,12.98h67.74l-21.9,55.98h-79.91c-27.58,0-50.7-15.41-39.34-53.94l62.87-213.35
		c6.49-21.91,19.06-27.58,38.94-27.58h113.16L2100.42,330.78z"/>
</g>
<g>
	<path class="st5" d="M677.17,123.02l9.33,159.8l78.69-159.8h72.2L621.2,540.38h-71.39l81.12-159.41l-23.12-257.96H677.17z"/>
	<path class="st5" d="M907.14,245.51c19.06,0,28.8,16.22,23.93,33.66l-67.74,229.97c-7.3,24.34-27.18,31.23-47.46,31.23h-72.6
		c-20.69,0-36.5-15.01-29.2-40.15l66.52-225.92c4.46-17.04,18.25-28.79,38.13-28.79H907.14z M834.13,300.26L779.78,484
		c-1.22,4.46,0.81,7.3,5.68,7.3h15.82c4.87,0,8.52-2.84,9.73-7.3l53.94-183.33c1.22-4.46-0.41-7.71-6.08-7.71h-15.41
		C837.38,292.96,835.35,296.2,834.13,300.26z"/>
	<path class="st5" d="M1021.92,245.51l-68.55,233.22c-2.84,8.93,1.22,12.17,10.14,12.17h15.82l72.2-245.38h60.84l-83.56,283.51
		l-70.58,34.48l6.89-23.12h-35.29c-30.01,0-51.1-15.82-39.34-54.75l70.58-240.12h61.25H1021.92z"/>
	<path class="st5" d="M1107.09,540.38h-61.25l86.8-294.87h111.54c26.36,0,34.88,17.84,29.2,37.31l-29.61,100.19
		c-2.43,8.52-10.95,17.44-25.96,17.44c9.33,1.63,18.25,11.36,11.76,32.45l-31.64,107.49h-61.25l34.07-115.6
		c1.62-4.87,0.81-10.14-6.49-10.14H1144L1107.09,540.38z M1177.67,371.24c6.08,0,11.36-2.43,14.19-11.36l16.22-54.75
		c2.43-7.71,0-12.17-9.33-12.17h-19.06l-23.12,78.28H1177.67z"/>
	<path class="st5" d="M1286.36,540.38h-68.14l102.62-348.82h68.14L1286.36,540.38z M1521.61,196.02
		c2.84-10.14-1.62-14.19-11.36-14.19h-219.02l37.31-58.81h232.82c30.82,0,43.8,20.68,35.69,48.26l-108.7,369.1h-68.14
		L1521.61,196.02z M1387.35,540.38h-68.14l102.62-348.82h68.14L1387.35,540.38z"/>
	<path class="st5" d="M1656.67,245.51l-68.55,233.22c-2.84,8.93,1.22,12.17,10.14,12.17h15.82l72.2-245.38h60.84l-83.56,283.51
		l-70.58,34.48l6.89-23.12h-35.29c-30.01,0-51.1-15.82-39.34-54.75l70.58-240.12h61.25H1656.67z"/>
	<path class="st5" d="M1820.52,298.64c-4.46,0-8.92,2.03-10.95,8.52l-17.44,60.03h32.86c21.9,0,35.69,12.17,27.17,40.97
		l-33.66,114.38c-3.24,11.76-16.63,17.85-29.2,17.85H1689.1l16.63-55.98h51.11c11.36,0,12.98-2.84,15.41-10.14l14.2-49.89
		c0.81-2.43,0.81-4.05-2.84-4.05h-32.45c-25.55,0-31.64-14.2-25.55-35.7l33.66-114.38c6.89-20.68,21.5-24.74,36.1-24.74h94.51
		l-15.82,53.13H1820.52z"/>
	<path class="st5" d="M1895.55,540.38h-62.87l86.8-294.87h62.87L1895.55,540.38z"/>
	<path class="st5" d="M2120.25,335.14l-59.22,13.79l16.22-55.97h-19.87c-6.49,0-9.33,1.62-11.36,8.92l-49.89,169.54
		c-2.84,9.33,0.41,12.98,8.92,12.98h67.74l-21.9,55.98h-79.91c-27.58,0-50.7-15.41-39.34-53.94l62.87-213.35
		c6.49-21.91,19.06-27.58,38.94-27.58h113.16L2120.25,335.14z"/>
</g>
</svg>
